<?xml version="1.0" standalone="no"?>
<!DOCTYPE svg PUBLIC "-//W3C//DTD SVG 20010904//EN"
 "http://www.w3.org/TR/2001/REC-SVG-20010904/DTD/svg10.dtd">
<svg version="1.0" xmlns="http://www.w3.org/2000/svg"
 width="512.000000pt" height="512.000000pt" viewBox="0 0 512.000000 512.000000"
 preserveAspectRatio="xMidYMid meet">
<metadata>
Created by potrace 1.14, written by Peter Selinger 2001-2017
</metadata>
<g transform="translate(0.000000,512.000000) scale(0.100000,-0.100000)"
fill="#000000" stroke="none">
<path d="M1038 4790 c-2 -8 -3 -814 -2 -1790 l1 -1775 38 -75 c21 -41 59 -115
85 -165 48 -91 117 -224 263 -505 44 -85 81 -157 83 -159 6 -7 1393 -4 1489 3
204 15 310 34 445 78 255 82 430 231 531 453 69 153 108 365 110 606 1 166 -9
197 -161 500 l-109 217 39 43 c64 71 131 213 154 324 4 17 9 41 11 55 17 82
23 265 12 355 -18 153 -76 336 -180 570 -35 79 -316 636 -355 705 -159 279
-376 445 -672 517 -36 8 -75 17 -87 18 -27 4 -99 16 -128 21 -52 10 -373 16
-942 18 -546 1 -622 -1 -625 -14z m822 -110 l55 0 0 -1668 0 -1668 -382 0
-382 0 0 1667 -1 1668 48 3 c38 2 287 2 662 -2z m537 -4 c101 -3 186 -7 190
-9 5 -3 35 -8 69 -12 117 -12 277 -61 393 -119 287 -145 427 -413 415 -799 -8
-262 -83 -466 -213 -575 -51 -43 -140 -88 -198 -100 l-38 -8 55 -18 c225 -74
370 -247 421 -501 20 -97 22 -132 23 -280 0 -219 -37 -363 -129 -506 -103
-159 -256 -266 -478 -334 -89 -27 -106 -31 -167 -40 -20 -3 -47 -8 -60 -10
-54 -12 -215 -19 -410 -19 l-205 -1 -3 277 -2 278 27 0 c91 2 263 10 293 14
19 3 55 8 80 12 67 9 147 39 185 71 65 55 88 140 88 328 0 265 -60 358 -262
409 -79 21 -200 33 -343 35 l-68 1 0 280 c0 217 3 280 13 281 6 0 62 2 122 4
172 6 254 17 326 46 122 47 158 136 153 374 -3 141 -16 194 -60 252 -54 71
-187 108 -414 117 -63 3 -121 5 -127 5 -10 1 -13 63 -13 275 l0 275 48 3 c26
2 61 2 77 1 17 -1 112 -5 212 -7z"/>
</g>
</svg>
